<svg width="1157" height="754" viewBox="0 0 1157 754" fill="none" xmlns="http://www.w3.org/2000/svg">
<circle cx="929" cy="305" r="228" fill="#F7C846"/>
<circle cx="748" cy="526" r="228" fill="#6446F7"/>
<circle cx="228" cy="454" r="228" fill="#F7464C"/>
<circle cx="330" cy="228" r="228" fill="#46F7D1"/>
<rect x="102" y="75" width="952" height="622" rx="35" fill="#030303"/>
<path d="M374.549 580.356C343.374 580.356 319.917 579.448 304.179 577.632C288.743 576.119 281.025 575.362 281.025 575.362C275.577 574.757 271.188 573.395 267.859 571.276C264.529 569.157 263.167 565.677 263.773 560.834L307.811 194.002C308.416 190.673 310.081 188.1 312.805 186.284C315.529 184.468 318.253 183.409 320.977 183.106C320.977 183.106 325.819 182.652 335.505 181.744C345.493 180.836 358.053 180.079 373.187 179.474C388.32 178.566 403.605 178.112 419.041 178.112C470.191 178.112 508.025 191.581 532.541 218.518C557.359 245.455 569.92 282.835 570.223 330.656C570.525 364.252 567.196 396.032 560.235 425.996C553.273 455.96 542.075 482.595 526.639 505.9C511.203 528.903 490.924 547.063 465.803 560.38C440.984 573.697 410.566 580.356 374.549 580.356ZM374.549 549.938C397.854 549.938 418.435 545.701 436.293 537.226C454.15 528.751 469.283 517.25 481.693 502.722C494.102 487.891 504.241 470.942 512.111 451.874C519.98 432.503 525.579 412.073 528.909 390.584C532.541 369.095 534.205 347.454 533.903 325.662C533.903 302.357 529.211 281.775 519.829 263.918C510.749 246.061 497.583 232.138 480.331 222.15C463.079 211.859 442.043 206.714 417.225 206.714C405.421 206.714 392.709 207.017 379.089 207.622C365.469 207.925 352.908 209.135 341.407 211.254L301.455 545.852C312.956 547.365 324.911 548.425 337.321 549.03C349.73 549.635 362.139 549.938 374.549 549.938ZM634.847 580.356C630.004 580.356 625.767 579.599 622.135 578.086C618.503 576.875 616.687 573.395 616.687 567.644C616.687 567.644 616.687 566.887 616.687 565.374C616.989 563.861 617.443 559.775 618.049 553.116C618.957 546.457 620.319 535.561 622.135 520.428C624.253 504.992 626.977 483.654 630.307 456.414C633.636 428.871 637.873 393.611 643.019 350.632C648.467 307.653 654.974 254.989 662.541 192.64C663.146 186.587 665.416 182.652 669.351 180.836C673.588 179.02 678.128 178.112 682.971 178.112C687.208 178.112 690.689 178.869 693.413 180.382C696.439 181.593 697.953 184.468 697.953 189.008C697.953 189.311 697.65 191.278 697.045 194.91C696.742 198.542 695.834 205.806 694.321 216.702C693.11 227.598 691.143 243.942 688.419 265.734C685.997 287.526 682.517 316.733 677.977 353.356H699.315C712.935 353.356 726.101 349.875 738.813 342.914C751.827 335.65 763.934 326.116 775.133 314.312C786.331 302.508 796.017 289.493 804.189 275.268C812.663 261.043 819.171 246.666 823.711 232.138C828.553 217.61 830.975 204.293 830.975 192.186C830.975 187.041 832.488 183.409 835.515 181.29C838.844 179.171 843.535 178.112 849.589 178.112C854.431 178.112 858.215 179.323 860.939 181.744C863.965 183.863 865.479 187.343 865.479 192.186C865.479 208.53 862.603 225.177 856.853 242.126C851.102 259.075 843.233 275.419 833.245 291.158C823.257 306.594 811.604 320.517 798.287 332.926C785.272 345.335 771.349 355.323 756.519 362.89L756.065 366.068C770.895 372.121 782.397 381.504 790.569 394.216C799.043 406.928 805.702 421.002 810.545 436.438C815.69 451.874 820.835 467.159 825.981 482.292L854.129 564.466C854.431 565.374 854.583 566.585 854.583 568.098C854.583 572.033 852.767 575.059 849.135 577.178C845.503 579.297 841.114 580.356 835.969 580.356C831.126 580.356 827.494 579.599 825.073 578.086C822.651 576.875 820.684 574.303 819.171 570.368L787.391 476.844C781.943 461.408 777.1 447.637 772.863 435.53C768.928 423.423 764.085 413.284 758.335 405.112C752.887 396.94 745.32 390.735 735.635 386.498C725.949 382.261 712.783 380.142 696.137 380.142H674.345C671.318 404.355 667.837 431.898 663.903 462.77C660.271 493.339 656.185 527.692 651.645 565.828C651.039 571.579 649.072 575.362 645.743 577.178C642.716 579.297 639.084 580.356 634.847 580.356Z" fill="white"/>
</svg>
